#N canvas 0 52 1920 989 10;
#X obj 5 371 splitphase;
#X obj 269 34 * 3;
#X obj 269 151 * 3;
#X obj 334 34 * 3;
#N canvas 0 0 470 305 texturesource 0;
#X obj 125 83 inlet~;
#X obj 128 243 outlet~;
#N canvas 0 0 855 637 8demux~ 0;
#X obj 223 17 inlet;
#X obj 223 47 route snow grass dirt gravel wood concrete metal;
#X obj 372 445 *~;
#X obj 398 445 *~;
#X obj 425 445 *~;
#X obj 451 445 *~;
#X obj 478 445 *~;
#X obj 504 445 *~;
#X obj 531 445 *~;
#X obj 557 445 *~;
#X msg 214 101 1;
#X msg 244 101 0;
#X obj 223 72 t b;
#X msg 268 129 1;
#X msg 298 129 0;
#X obj 277 100 t b;
#X msg 322 157 1;
#X msg 352 157 0;
#X obj 331 128 t b;
#X msg 377 186 1;
#X msg 407 186 0;
#X obj 386 157 t b;
#X msg 429 215 1;
#X msg 459 215 0;
#X obj 438 186 t b;
#X msg 481 244 1;
#X msg 511 244 0;
#X obj 490 215 t b;
#X msg 531 273 1;
#X msg 561 273 0;
#X obj 540 244 t b;
#X msg 581 302 1;
#X msg 611 302 0;
#X obj 590 273 t b;
#X text 586 384 why can I never think of a better way to do this?;
#X obj 204 202 inlet~;
#X obj 372 477 outlet~;
#X obj 398 502 outlet~;
#X obj 426 526 outlet~;
#X obj 452 551 outlet~;
#X obj 479 574 outlet~;
#X obj 505 599 outlet~;
#X obj 530 623 outlet~;
#X obj 556 648 outlet~;
#X connect 0 0 1 0;
#X connect 1 0 12 0;
#X connect 1 1 15 0;
#X connect 1 2 18 0;
#X connect 1 3 21 0;
#X connect 1 4 24 0;
#X connect 1 5 27 0;
#X connect 1 6 30 0;
#X connect 1 7 33 0;
#X connect 2 0 36 0;
#X connect 3 0 37 0;
#X connect 4 0 38 0;
#X connect 5 0 39 0;
#X connect 6 0 40 0;
#X connect 7 0 41 0;
#X connect 8 0 42 0;
#X connect 9 0 43 0;
#X connect 10 0 2 1;
#X connect 11 0 3 1;
#X connect 11 0 4 1;
#X connect 11 0 5 1;
#X connect 11 0 6 1;
#X connect 11 0 7 1;
#X connect 11 0 8 1;
#X connect 11 0 9 1;
#X connect 12 0 10 0;
#X connect 12 0 11 0;
#X connect 13 0 3 1;
#X connect 14 0 2 1;
#X connect 14 0 4 1;
#X connect 14 0 5 1;
#X connect 14 0 6 1;
#X connect 14 0 7 1;
#X connect 14 0 8 1;
#X connect 14 0 9 1;
#X connect 15 0 13 0;
#X connect 15 0 14 0;
#X connect 16 0 4 1;
#X connect 17 0 2 1;
#X connect 17 0 3 1;
#X connect 17 0 5 1;
#X connect 17 0 6 1;
#X connect 17 0 7 1;
#X connect 17 0 8 1;
#X connect 17 0 9 1;
#X connect 18 0 16 0;
#X connect 18 0 17 0;
#X connect 19 0 5 1;
#X connect 20 0 2 1;
#X connect 20 0 3 1;
#X connect 20 0 4 1;
#X connect 20 0 6 1;
#X connect 20 0 7 1;
#X connect 20 0 8 1;
#X connect 20 0 9 1;
#X connect 21 0 19 0;
#X connect 21 0 20 0;
#X connect 22 0 6 1;
#X connect 23 0 2 1;
#X connect 23 0 3 1;
#X connect 23 0 4 1;
#X connect 23 0 5 1;
#X connect 23 0 7 1;
#X connect 23 0 8 1;
#X connect 23 0 9 1;
#X connect 24 0 22 0;
#X connect 24 0 23 0;
#X connect 25 0 7 1;
#X connect 26 0 2 1;
#X connect 26 0 3 1;
#X connect 26 0 4 1;
#X connect 26 0 5 1;
#X connect 26 0 6 1;
#X connect 26 0 8 1;
#X connect 26 0 9 1;
#X connect 27 0 25 0;
#X connect 27 0 26 0;
#X connect 28 0 8 1;
#X connect 29 0 2 1;
#X connect 29 0 3 1;
#X connect 29 0 4 1;
#X connect 29 0 5 1;
#X connect 29 0 6 1;
#X connect 29 0 7 1;
#X connect 29 0 9 1;
#X connect 30 0 28 0;
#X connect 30 0 29 0;
#X connect 31 0 9 1;
#X connect 32 0 2 1;
#X connect 32 0 3 1;
#X connect 32 0 4 1;
#X connect 32 0 5 1;
#X connect 32 0 6 1;
#X connect 32 0 7 1;
#X connect 32 0 8 1;
#X connect 33 0 31 0;
#X connect 33 0 32 0;
#X connect 35 0 2 0;
#X connect 35 0 3 0;
#X connect 35 0 4 0;
#X connect 35 0 5 0;
#X connect 35 0 6 0;
#X connect 35 0 7 0;
#X connect 35 0 8 0;
#X connect 35 0 9 0;
#X restore 125 109 pd 8demux~;
#X obj 190 82 inlet;
#N canvas 0 0 726 641 snowtex 0;
#N canvas 0 0 776 658 snow 0;
#X obj 161 453 *~;
#X obj 109 225 noise~;
#X obj 146 412 vcf~ 200 3;
#X obj 241 366 loadbang;
#X obj 102 270 /~;
#X obj 103 343 clip~ -1 1;
#X obj 60 247 lop~ 110;
#X obj 121 246 lop~ 900;
#X obj 166 169 noise~;
#X obj 165 219 /~;
#X obj 123 196 lop~ 50;
#X obj 184 195 lop~ 70;
#X obj 103 290 *~;
#X obj 192 220 lop~ 10;
#X obj 191 241 *~ 17;
#X obj 190 264 *~;
#X obj 103 313 *~;
#X obj 189 286 +~ 0.5;
#X obj 181 142 inlet~;
#X obj 160 507 outlet~;
#X obj 247 154 switch~;
#X obj 247 128 inlet;
#X obj 102 365 hip~ 300;
#X obj 185 389 +~ 700;
#X obj 185 365 *~ 9000;
#X msg 241 386 0.5;
#X obj 162 476 *~ 0.2;
#X connect 0 0 26 0;
#X connect 1 0 6 0;
#X connect 1 0 7 0;
#X connect 2 0 0 0;
#X connect 3 0 25 0;
#X connect 4 0 12 0;
#X connect 5 0 22 0;
#X connect 6 0 4 0;
#X connect 7 0 4 1;
#X connect 8 0 10 0;
#X connect 8 0 11 0;
#X connect 8 0 13 0;
#X connect 9 0 12 1;
#X connect 10 0 9 0;
#X connect 11 0 9 1;
#X connect 12 0 16 0;
#X connect 13 0 14 0;
#X connect 14 0 15 0;
#X connect 14 0 15 1;
#X connect 15 0 17 0;
#X connect 16 0 5 0;
#X connect 17 0 16 1;
#X connect 18 0 0 1;
#X connect 18 0 24 0;
#X connect 21 0 20 0;
#X connect 22 0 2 0;
#X connect 23 0 2 1;
#X connect 24 0 23 0;
#X connect 25 0 2 2;
#X connect 26 0 19 0;
#X restore 158 117 pd snow;
#X obj 202 75 env~;
#X obj 202 96 > 0.5;
#X obj 180 38 inlet~;
#X obj 158 139 outlet~;
#X connect 0 0 4 0;
#X connect 1 0 2 0;
#X connect 2 0 0 1;
#X connect 3 0 1 0;
#X connect 3 0 0 0;
#X restore 8 170 pd snowtex;
#N canvas 0 0 726 641 dirttex 0;
#X obj 202 75 env~;
#X obj 202 96 > 0.5;
#X obj 180 38 inlet~;
#X obj 158 139 outlet~;
#N canvas 0 0 294 514 dirt 0;
#X obj 54 309 *~;
#X obj 72 47 inlet~;
#X obj 76 443 outlet~;
#X obj 138 59 switch~;
#X obj 138 33 inlet;
#X obj 128 221 osc~;
#X obj 127 157 *~;
#X obj 150 82 noise~;
#X obj 150 127 *~ 70;
#X obj 150 104 lop~ 80;
#X obj 100 127 +~ 0.3;
#X obj 128 242 hip~ 200;
#X obj 71 126 *~;
#X obj 70 148 *~;
#X obj 18 250 osc~ 80;
#X obj 18 228 +~ 40;
#X obj 19 202 *~ 500;
#X obj 77 394 +~;
#X obj 127 264 clip~ -1 1;
#X obj 128 179 *~ 70;
#X obj 126 330 *~ 0.04;
#X obj 55 332 *~ 0.5;
#X obj 128 200 +~ 70;
#X connect 0 0 21 0;
#X connect 1 0 10 0;
#X connect 1 0 12 0;
#X connect 1 0 12 1;
#X connect 4 0 3 0;
#X connect 5 0 11 0;
#X connect 6 0 19 0;
#X connect 7 0 9 0;
#X connect 8 0 6 1;
#X connect 9 0 8 0;
#X connect 10 0 6 0;
#X connect 11 0 18 0;
#X connect 12 0 13 0;
#X connect 12 0 13 1;
#X connect 13 0 0 1;
#X connect 13 0 16 0;
#X connect 14 0 0 0;
#X connect 15 0 14 0;
#X connect 16 0 15 0;
#X connect 17 0 2 0;
#X connect 18 0 20 0;
#X connect 19 0 22 0;
#X connect 20 0 17 1;
#X connect 21 0 17 0;
#X connect 22 0 5 0;
#X restore 158 117 pd dirt;
#X connect 0 0 1 0;
#X connect 1 0 4 1;
#X connect 2 0 0 0;
#X connect 2 0 4 0;
#X connect 4 0 3 0;
#X restore 173 169 pd dirttex;
#N canvas 0 0 726 641 grasstex 0;
#X obj 202 75 env~;
#X obj 202 96 > 0.5;
#X obj 180 38 inlet~;
#X obj 158 139 outlet~;
#N canvas 0 0 888 667 grass 0;
#X obj 163 404 *~;
#X obj 181 142 inlet~;
#X obj 401 564 outlet~;
#X obj 238 140 inlet;
#X obj 180 221 *~;
#X obj 179 243 *~;
#X obj 127 345 osc~ 80;
#X obj 401 527 +~;
#X obj 164 427 *~ 0.8;
#X obj 127 323 +~ 30;
#X obj 127 297 *~ 600;
#X obj 127 369 clip~ 0 0.5;
#X obj 238 166 switch~;
#X obj 725 115 noise~;
#X obj 732 286 lop~ 16;
#X obj 627 405 vcf~ 3333 30;
#X obj 627 248 *~;
#X obj 627 272 *~;
#X obj 733 312 *~ 23800;
#X obj 626 176 /~;
#X obj 655 149 lop~ 2000;
#X obj 593 149 lop~ 300;
#X obj 626 315 clip~ -0.9 0.9;
#X obj 733 334 +~ 3400;
#X obj 626 293 *~ 1e-05;
#X obj 626 213 hip~ 2500;
#X obj 611 489 *~;
#X obj 733 359 clip~ 2000 10000;
#X msg 723 386 1;
#X obj 718 405 init 1;
#X obj 627 435 hip~ 900;
#X obj 627 467 *~ 0.3;
#X connect 0 0 8 0;
#X connect 1 0 4 0;
#X connect 1 0 4 1;
#X connect 1 0 26 0;
#X connect 3 0 12 0;
#X connect 4 0 5 0;
#X connect 4 0 5 1;
#X connect 5 0 0 1;
#X connect 5 0 10 0;
#X connect 6 0 11 0;
#X connect 7 0 2 0;
#X connect 8 0 7 0;
#X connect 9 0 6 0;
#X connect 10 0 9 0;
#X connect 11 0 0 0;
#X connect 13 0 14 0;
#X connect 13 0 20 0;
#X connect 13 0 21 0;
#X connect 14 0 18 0;
#X connect 15 0 30 0;
#X connect 16 0 17 0;
#X connect 16 0 17 1;
#X connect 17 0 24 0;
#X connect 18 0 23 0;
#X connect 19 0 25 0;
#X connect 20 0 19 1;
#X connect 21 0 19 0;
#X connect 22 0 15 0;
#X connect 23 0 27 0;
#X connect 24 0 22 0;
#X connect 25 0 16 0;
#X connect 25 0 16 1;
#X connect 26 0 7 1;
#X connect 27 0 15 1;
#X connect 28 0 15 2;
#X connect 29 0 15 2;
#X connect 30 0 31 0;
#X connect 31 0 26 1;
#X restore 158 117 pd grass;
#X connect 0 0 1 0;
#X connect 1 0 4 1;
#X connect 2 0 0 0;
#X connect 2 0 4 0;
#X connect 4 0 3 0;
#X restore 87 170 pd grasstex;
#N canvas 0 0 726 641 gravtex 0;
#X obj 202 75 env~;
#X obj 202 96 > 0.5;
#X obj 180 38 inlet~;
#X obj 158 139 outlet~;
#N canvas 0 0 492 597 gravel 0;
#X obj 123 19 inlet~;
#X obj 123 499 outlet~;
#X obj 293 69 inlet;
#X obj 293 95 switch~;
#X obj 252 14 noise~;
#X obj 136 160 *~;
#X obj 136 107 /~;
#X obj 166 70 lop~ 2000;
#X obj 104 70 lop~ 300;
#X obj 137 241 clip~ -0.9 0.9;
#X obj 122 475 *~;
#X obj 156 380 clip~ 500 10000;
#X obj 154 271 lop~ 50;
#X obj 137 134 hip~ 400;
#X obj 137 219 *~ 0.01;
#X obj 155 297 *~ 50000;
#X obj 138 430 hip~ 200;
#X obj 138 453 *~ 2;
#X obj 156 355 +~;
#X obj 173 330 *~ 1000;
#X obj 138 406 vcf~ 3;
#X connect 0 0 10 0;
#X connect 0 0 19 0;
#X connect 2 0 3 0;
#X connect 4 0 7 0;
#X connect 4 0 8 0;
#X connect 4 0 12 0;
#X connect 5 0 14 0;
#X connect 6 0 13 0;
#X connect 7 0 6 1;
#X connect 8 0 6 0;
#X connect 9 0 20 0;
#X connect 10 0 1 0;
#X connect 11 0 20 1;
#X connect 12 0 15 0;
#X connect 13 0 5 0;
#X connect 13 0 5 1;
#X connect 14 0 9 0;
#X connect 15 0 18 0;
#X connect 16 0 17 0;
#X connect 17 0 10 1;
#X connect 18 0 11 0;
#X connect 19 0 18 1;
#X connect 20 0 16 0;
#X restore 158 117 pd gravel;
#X connect 0 0 1 0;
#X connect 1 0 4 1;
#X connect 2 0 0 0;
#X connect 2 0 4 0;
#X connect 4 0 3 0;
#X restore 250 168 pd gravtex;
#N canvas 0 0 726 641 woodtex 0;
#X obj 202 75 env~;
#X obj 202 96 > 0.5;
#X obj 180 38 inlet~;
#X obj 158 139 outlet~;
#N canvas 0 0 1177 818 wood 0;
#X obj 470 445 *~;
#X obj 181 142 inlet~;
#X obj 401 564 outlet~;
#X obj 238 140 inlet;
#X obj 180 221 *~;
#X obj 401 527 +~;
#X obj 237 163 switch~;
#X obj 466 255 noise~;
#X obj 419 322 *~ 6;
#X obj 801 262 noise~;
#X obj 355 423 *~;
#X obj 737 287 bp~ 123 20;
#X obj 180 251 *~ 2;
#X obj 336 293 bp~ 95 90;
#X obj 411 291 bp~ 134 90;
#X obj 489 290 bp~ 139 90;
#X obj 567 290 bp~ 154 90;
#X obj 815 286 bp~ 156 90;
#X obj 893 286 bp~ 189 90;
#X obj 745 318 *~ 8;
#X obj 662 289 bp~ 201 70;
#X obj 243 258 sqrt~;
#X obj 356 449 *~ 0.5;
#X obj 469 469 *~ 0.6;
#X connect 0 0 23 0;
#X connect 1 0 4 0;
#X connect 1 0 4 1;
#X connect 1 0 21 0;
#X connect 3 0 6 0;
#X connect 4 0 12 0;
#X connect 5 0 2 0;
#X connect 7 0 13 0;
#X connect 7 0 14 0;
#X connect 7 0 15 0;
#X connect 7 0 16 0;
#X connect 8 0 10 1;
#X connect 9 0 11 0;
#X connect 9 0 17 0;
#X connect 9 0 18 0;
#X connect 9 0 20 0;
#X connect 10 0 22 0;
#X connect 11 0 19 0;
#X connect 12 0 0 0;
#X connect 13 0 8 0;
#X connect 14 0 8 0;
#X connect 15 0 8 0;
#X connect 16 0 8 0;
#X connect 17 0 19 0;
#X connect 18 0 19 0;
#X connect 19 0 0 1;
#X connect 20 0 19 0;
#X connect 21 0 10 0;
#X connect 22 0 5 0;
#X connect 23 0 5 0;
#X restore 158 117 pd wood;
#X connect 0 0 1 0;
#X connect 1 0 4 1;
#X connect 2 0 0 0;
#X connect 2 0 4 0;
#X connect 4 0 3 0;
#X restore 332 167 pd woodtex;
#X text 233 81 surface select;
#X text 9 83 control envelope;
#X connect 0 0 2 0;
#X connect 2 0 4 0;
#X connect 2 1 6 0;
#X connect 2 2 5 0;
#X connect 2 3 7 0;
#X connect 2 4 8 0;
#X connect 3 0 2 1;
#X connect 4 0 1 0;
#X connect 5 0 1 0;
#X connect 6 0 1 0;
#X connect 7 0 1 0;
#X connect 8 0 1 0;
#X restore 5 445 pd texturesource;
#X obj 211 301 hsl 128 15 0 1 0 1 walkspeed empty walkspeed 38 7 1 8 #fcfcfc #000000 #000000 140 1;
#X obj 269 82 s~ n1;
#X obj 269 198 s~ n2;
#X obj 334 82 s~ n3;
#X obj 334 199 s~ a1;
#X obj 294 240 hsl 128 15 0 1 0 1 \$0-heel \$0-heelf heel 38 7 1 8 #fcfcfc #000000 #000000 6350 1;
#X obj 269 12 r \$0-heel;
#X obj 269 107 r \$0-roll;
#X obj 334 12 r \$0-ball;
#X obj 333 107 r \$0-amp;
#X obj 68 302 hsl 128 15 0 1 0 1 \$0-roll empty roll 38 7 1 8 #fcfcfc #000000 #000000 457 1;
#X obj 294 259 hsl 128 15 0 1 0 1 \$0-ball \$0-ballf ball 38 7 1 8 #fcfcfc #000000 #000000 6350 1;
#X obj 269 56 sig~;
#X obj 269 174 sig~;
#X obj 334 57 sig~;
#X obj 333 175 sig~;
#N canvas 43 30 386 285 foot 0;
#X obj 0 96 clip~ 0 0.33333;
#X obj 265 96 clip~ 0.666666 1;
#X obj 0 144 *~ 3;
#X obj 265 144 *~ 3;
#X obj 265 122 -~ 0.666666;
#X obj 132 96 clip~ 0.125 0.875;
#X obj 132 122 -~ 0.125;
#X obj 132 144 *~ 1.33333;
#N canvas 512 249 114 240 polycurve 0;
#X obj 0 67 *~;
#X obj 0 91 *~;
#X obj 63 42 sig~ 1;
#X obj 37 151 -~;
#X obj 47 177 *~;
#X obj 0 32 *~ 1;
#X obj 47 200 *~ -1.5;
#X obj 63 66 -~;
#X obj 37 127 *~;
#X obj 54 22 inlet~ N;
#X obj 28 67 *~;
#X obj 0 0 inlet~ X;
#X obj 47 222 outlet~ P;
#X connect 0 0 1 0;
#X connect 1 0 8 0;
#X connect 2 0 7 0;
#X connect 3 0 4 0;
#X connect 4 0 6 0;
#X connect 5 0 0 0;
#X connect 5 0 0 1;
#X connect 5 0 1 1;
#X connect 5 0 7 1;
#X connect 5 0 10 0;
#X connect 6 0 12 0;
#X connect 7 0 4 1;
#X connect 8 0 3 0;
#X connect 9 0 10 1;
#X connect 9 0 8 1;
#X connect 10 0 3 1;
#X connect 11 0 5 0;
#X restore 0 195 pd polycurve;
#N canvas 0 0 566 419 polycurve 0;
#X obj 173 193 *~;
#X obj 174 217 *~;
#X obj 237 168 sig~ 1;
#X obj 211 277 -~;
#X obj 220 303 *~;
#X obj 173 158 *~ 1;
#X obj 219 326 *~ -1.5;
#X obj 237 192 -~;
#X obj 210 253 *~;
#X obj 227 148 inlet~ N;
#X obj 201 193 *~;
#X obj 173 126 inlet~ X;
#X obj 218 351 outlet~ P;
#X connect 0 0 1 0;
#X connect 1 0 8 0;
#X connect 2 0 7 0;
#X connect 3 0 4 0;
#X connect 4 0 6 0;
#X connect 5 0 0 0;
#X connect 5 0 0 1;
#X connect 5 0 1 1;
#X connect 5 0 7 1;
#X connect 5 0 10 0;
#X connect 6 0 12 0;
#X connect 7 0 4 1;
#X connect 8 0 3 0;
#X connect 9 0 10 1;
#X connect 9 0 8 1;
#X connect 10 0 3 1;
#X connect 11 0 5 0;
#X restore 132 196 pd polycurve;
#N canvas 0 0 566 419 polycurve 0;
#X obj 173 193 *~;
#X obj 174 217 *~;
#X obj 237 168 sig~ 1;
#X obj 211 277 -~;
#X obj 220 303 *~;
#X obj 173 158 *~ 1;
#X obj 219 326 *~ -1.5;
#X obj 237 192 -~;
#X obj 210 253 *~;
#X obj 227 148 inlet~ N;
#X obj 201 193 *~;
#X obj 173 126 inlet~ X;
#X obj 218 351 outlet~ P;
#X connect 0 0 1 0;
#X connect 1 0 8 0;
#X connect 2 0 7 0;
#X connect 3 0 4 0;
#X connect 4 0 6 0;
#X connect 5 0 0 0;
#X connect 5 0 0 1;
#X connect 5 0 1 1;
#X connect 5 0 7 1;
#X connect 5 0 10 0;
#X connect 6 0 12 0;
#X connect 7 0 4 1;
#X connect 8 0 3 0;
#X connect 9 0 10 1;
#X connect 9 0 8 1;
#X connect 10 0 3 1;
#X connect 11 0 5 0;
#X restore 265 195 pd polycurve;
#X obj 80 170 r~ n1;
#X obj 210 170 r~ n2;
#X obj 344 170 r~ n3;
#X obj 132 0 inlet~;
#X obj 132 267 outlet~;
#X obj 132 26 clip~ 0 0.75;
#X obj 132 54 *~ 1.33333;
#X connect 0 0 2 0;
#X connect 1 0 4 0;
#X connect 2 0 8 0;
#X connect 3 0 10 0;
#X connect 4 0 3 0;
#X connect 5 0 6 0;
#X connect 6 0 7 0;
#X connect 7 0 9 0;
#X connect 8 0 15 0;
#X connect 9 0 15 0;
#X connect 10 0 15 0;
#X connect 11 0 8 1;
#X connect 12 0 9 1;
#X connect 13 0 10 1;
#X connect 14 0 16 0;
#X connect 16 0 17 0;
#X connect 17 0 0 0;
#X connect 17 0 5 0;
#X connect 17 0 1 0;
#X restore 5 399 pd foot;
#N canvas 0 0 470 305 texturesource 0;
#X obj 125 83 inlet~;
#X obj 128 243 outlet~;
#N canvas 0 0 855 637 8demux~ 0;
#X obj 223 17 inlet;
#X obj 223 47 route snow grass dirt gravel wood concrete metal;
#X obj 372 445 *~;
#X obj 398 445 *~;
#X obj 425 445 *~;
#X obj 451 445 *~;
#X obj 478 445 *~;
#X obj 504 445 *~;
#X obj 531 445 *~;
#X obj 557 445 *~;
#X msg 214 101 1;
#X msg 244 101 0;
#X obj 223 72 t b;
#X msg 268 129 1;
#X msg 298 129 0;
#X obj 277 100 t b;
#X msg 322 157 1;
#X msg 352 157 0;
#X obj 331 128 t b;
#X msg 377 186 1;
#X msg 407 186 0;
#X obj 386 157 t b;
#X msg 429 215 1;
#X msg 459 215 0;
#X obj 438 186 t b;
#X msg 481 244 1;
#X msg 511 244 0;
#X obj 490 215 t b;
#X msg 531 273 1;
#X msg 561 273 0;
#X obj 540 244 t b;
#X msg 581 302 1;
#X msg 611 302 0;
#X obj 590 273 t b;
#X text 586 384 why can I never think of a better way to do this?;
#X obj 204 202 inlet~;
#X obj 372 477 outlet~;
#X obj 398 502 outlet~;
#X obj 426 526 outlet~;
#X obj 452 551 outlet~;
#X obj 479 574 outlet~;
#X obj 505 599 outlet~;
#X obj 530 623 outlet~;
#X obj 556 648 outlet~;
#X connect 0 0 1 0;
#X connect 1 0 12 0;
#X connect 1 1 15 0;
#X connect 1 2 18 0;
#X connect 1 3 21 0;
#X connect 1 4 24 0;
#X connect 1 5 27 0;
#X connect 1 6 30 0;
#X connect 1 7 33 0;
#X connect 2 0 36 0;
#X connect 3 0 37 0;
#X connect 4 0 38 0;
#X connect 5 0 39 0;
#X connect 6 0 40 0;
#X connect 7 0 41 0;
#X connect 8 0 42 0;
#X connect 9 0 43 0;
#X connect 10 0 2 1;
#X connect 11 0 3 1;
#X connect 11 0 4 1;
#X connect 11 0 5 1;
#X connect 11 0 6 1;
#X connect 11 0 7 1;
#X connect 11 0 8 1;
#X connect 11 0 9 1;
#X connect 12 0 10 0;
#X connect 12 0 11 0;
#X connect 13 0 3 1;
#X connect 14 0 2 1;
#X connect 14 0 4 1;
#X connect 14 0 5 1;
#X connect 14 0 6 1;
#X connect 14 0 7 1;
#X connect 14 0 8 1;
#X connect 14 0 9 1;
#X connect 15 0 13 0;
#X connect 15 0 14 0;
#X connect 16 0 4 1;
#X connect 17 0 2 1;
#X connect 17 0 3 1;
#X connect 17 0 5 1;
#X connect 17 0 6 1;
#X connect 17 0 7 1;
#X connect 17 0 8 1;
#X connect 17 0 9 1;
#X connect 18 0 16 0;
#X connect 18 0 17 0;
#X connect 19 0 5 1;
#X connect 20 0 2 1;
#X connect 20 0 3 1;
#X connect 20 0 4 1;
#X connect 20 0 6 1;
#X connect 20 0 7 1;
#X connect 20 0 8 1;
#X connect 20 0 9 1;
#X connect 21 0 19 0;
#X connect 21 0 20 0;
#X connect 22 0 6 1;
#X connect 23 0 2 1;
#X connect 23 0 3 1;
#X connect 23 0 4 1;
#X connect 23 0 5 1;
#X connect 23 0 7 1;
#X connect 23 0 8 1;
#X connect 23 0 9 1;
#X connect 24 0 22 0;
#X connect 24 0 23 0;
#X connect 25 0 7 1;
#X connect 26 0 2 1;
#X connect 26 0 3 1;
#X connect 26 0 4 1;
#X connect 26 0 5 1;
#X connect 26 0 6 1;
#X connect 26 0 8 1;
#X connect 26 0 9 1;
#X connect 27 0 25 0;
#X connect 27 0 26 0;
#X connect 28 0 8 1;
#X connect 29 0 2 1;
#X connect 29 0 3 1;
#X connect 29 0 4 1;
#X connect 29 0 5 1;
#X connect 29 0 6 1;
#X connect 29 0 7 1;
#X connect 29 0 9 1;
#X connect 30 0 28 0;
#X connect 30 0 29 0;
#X connect 31 0 9 1;
#X connect 32 0 2 1;
#X connect 32 0 3 1;
#X connect 32 0 4 1;
#X connect 32 0 5 1;
#X connect 32 0 6 1;
#X connect 32 0 7 1;
#X connect 32 0 8 1;
#X connect 33 0 31 0;
#X connect 33 0 32 0;
#X connect 35 0 2 0;
#X connect 35 0 3 0;
#X connect 35 0 4 0;
#X connect 35 0 5 0;
#X connect 35 0 6 0;
#X connect 35 0 7 0;
#X connect 35 0 8 0;
#X connect 35 0 9 0;
#X restore 125 109 pd 8demux~;
#X obj 190 82 inlet;
#N canvas 0 0 726 641 snowtex 0;
#N canvas 0 0 776 658 snow 0;
#X obj 161 453 *~;
#X obj 109 225 noise~;
#X obj 146 412 vcf~ 200 3;
#X obj 241 366 loadbang;
#X obj 102 270 /~;
#X obj 103 343 clip~ -1 1;
#X obj 60 247 lop~ 110;
#X obj 121 246 lop~ 900;
#X obj 166 169 noise~;
#X obj 165 219 /~;
#X obj 123 196 lop~ 50;
#X obj 184 195 lop~ 70;
#X obj 103 290 *~;
#X obj 192 220 lop~ 10;
#X obj 191 241 *~ 17;
#X obj 190 264 *~;
#X obj 103 313 *~;
#X obj 189 286 +~ 0.5;
#X obj 181 142 inlet~;
#X obj 160 507 outlet~;
#X obj 247 154 switch~;
#X obj 247 128 inlet;
#X obj 102 365 hip~ 300;
#X obj 185 389 +~ 700;
#X obj 185 365 *~ 9000;
#X msg 241 386 0.5;
#X obj 162 476 *~ 0.2;
#X connect 0 0 26 0;
#X connect 1 0 6 0;
#X connect 1 0 7 0;
#X connect 2 0 0 0;
#X connect 3 0 25 0;
#X connect 4 0 12 0;
#X connect 5 0 22 0;
#X connect 6 0 4 0;
#X connect 7 0 4 1;
#X connect 8 0 10 0;
#X connect 8 0 11 0;
#X connect 8 0 13 0;
#X connect 9 0 12 1;
#X connect 10 0 9 0;
#X connect 11 0 9 1;
#X connect 12 0 16 0;
#X connect 13 0 14 0;
#X connect 14 0 15 0;
#X connect 14 0 15 1;
#X connect 15 0 17 0;
#X connect 16 0 5 0;
#X connect 17 0 16 1;
#X connect 18 0 0 1;
#X connect 18 0 24 0;
#X connect 21 0 20 0;
#X connect 22 0 2 0;
#X connect 23 0 2 1;
#X connect 24 0 23 0;
#X connect 25 0 2 2;
#X connect 26 0 19 0;
#X restore 158 117 pd snow;
#X obj 202 75 env~;
#X obj 202 96 > 0.5;
#X obj 180 38 inlet~;
#X obj 158 139 outlet~;
#X connect 0 0 4 0;
#X connect 1 0 2 0;
#X connect 2 0 0 1;
#X connect 3 0 1 0;
#X connect 3 0 0 0;
#X restore 8 170 pd snowtex;
#N canvas 0 0 726 641 dirttex 0;
#X obj 202 75 env~;
#X obj 202 96 > 0.5;
#X obj 180 38 inlet~;
#X obj 158 139 outlet~;
#N canvas 0 0 294 514 dirt 0;
#X obj 54 309 *~;
#X obj 72 47 inlet~;
#X obj 76 443 outlet~;
#X obj 138 59 switch~;
#X obj 138 33 inlet;
#X obj 128 221 osc~;
#X obj 127 157 *~;
#X obj 150 82 noise~;
#X obj 150 127 *~ 70;
#X obj 150 104 lop~ 80;
#X obj 100 127 +~ 0.3;
#X obj 128 242 hip~ 200;
#X obj 71 126 *~;
#X obj 70 148 *~;
#X obj 18 250 osc~ 80;
#X obj 18 228 +~ 40;
#X obj 19 202 *~ 500;
#X obj 77 394 +~;
#X obj 127 264 clip~ -1 1;
#X obj 128 179 *~ 70;
#X obj 126 330 *~ 0.04;
#X obj 55 332 *~ 0.5;
#X obj 128 200 +~ 70;
#X connect 0 0 21 0;
#X connect 1 0 10 0;
#X connect 1 0 12 0;
#X connect 1 0 12 1;
#X connect 4 0 3 0;
#X connect 5 0 11 0;
#X connect 6 0 19 0;
#X connect 7 0 9 0;
#X connect 8 0 6 1;
#X connect 9 0 8 0;
#X connect 10 0 6 0;
#X connect 11 0 18 0;
#X connect 12 0 13 0;
#X connect 12 0 13 1;
#X connect 13 0 0 1;
#X connect 13 0 16 0;
#X connect 14 0 0 0;
#X connect 15 0 14 0;
#X connect 16 0 15 0;
#X connect 17 0 2 0;
#X connect 18 0 20 0;
#X connect 19 0 22 0;
#X connect 20 0 17 1;
#X connect 21 0 17 0;
#X connect 22 0 5 0;
#X restore 158 117 pd dirt;
#X connect 0 0 1 0;
#X connect 1 0 4 1;
#X connect 2 0 0 0;
#X connect 2 0 4 0;
#X connect 4 0 3 0;
#X restore 173 169 pd dirttex;
#N canvas 0 0 726 641 grasstex 0;
#X obj 202 75 env~;
#X obj 202 96 > 0.5;
#X obj 180 38 inlet~;
#X obj 158 139 outlet~;
#N canvas 0 0 888 667 grass 0;
#X obj 163 404 *~;
#X obj 181 142 inlet~;
#X obj 401 564 outlet~;
#X obj 238 140 inlet;
#X obj 180 221 *~;
#X obj 179 243 *~;
#X obj 127 345 osc~ 80;
#X obj 401 527 +~;
#X obj 164 427 *~ 0.8;
#X obj 127 323 +~ 30;
#X obj 127 297 *~ 600;
#X obj 127 369 clip~ 0 0.5;
#X obj 238 166 switch~;
#X obj 725 115 noise~;
#X obj 732 286 lop~ 16;
#X obj 627 405 vcf~ 3333 30;
#X obj 627 248 *~;
#X obj 627 272 *~;
#X obj 733 312 *~ 23800;
#X obj 626 176 /~;
#X obj 655 149 lop~ 2000;
#X obj 593 149 lop~ 300;
#X obj 626 315 clip~ -0.9 0.9;
#X obj 733 334 +~ 3400;
#X obj 626 293 *~ 1e-05;
#X obj 626 213 hip~ 2500;
#X obj 611 489 *~;
#X obj 733 359 clip~ 2000 10000;
#X msg 723 386 1;
#X obj 718 405 init 1;
#X obj 627 435 hip~ 900;
#X obj 627 467 *~ 0.3;
#X connect 0 0 8 0;
#X connect 1 0 4 0;
#X connect 1 0 4 1;
#X connect 1 0 26 0;
#X connect 3 0 12 0;
#X connect 4 0 5 0;
#X connect 4 0 5 1;
#X connect 5 0 0 1;
#X connect 5 0 10 0;
#X connect 6 0 11 0;
#X connect 7 0 2 0;
#X connect 8 0 7 0;
#X connect 9 0 6 0;
#X connect 10 0 9 0;
#X connect 11 0 0 0;
#X connect 13 0 14 0;
#X connect 13 0 20 0;
#X connect 13 0 21 0;
#X connect 14 0 18 0;
#X connect 15 0 30 0;
#X connect 16 0 17 0;
#X connect 16 0 17 1;
#X connect 17 0 24 0;
#X connect 18 0 23 0;
#X connect 19 0 25 0;
#X connect 20 0 19 1;
#X connect 21 0 19 0;
#X connect 22 0 15 0;
#X connect 23 0 27 0;
#X connect 24 0 22 0;
#X connect 25 0 16 0;
#X connect 25 0 16 1;
#X connect 26 0 7 1;
#X connect 27 0 15 1;
#X connect 28 0 15 2;
#X connect 29 0 15 2;
#X connect 30 0 31 0;
#X connect 31 0 26 1;
#X restore 158 117 pd grass;
#X connect 0 0 1 0;
#X connect 1 0 4 1;
#X connect 2 0 0 0;
#X connect 2 0 4 0;
#X connect 4 0 3 0;
#X restore 87 170 pd grasstex;
#N canvas 119 44 726 641 gravtex 0;
#X obj 44 26 env~;
#X obj 44 47 > 0.5;
#X obj 20 -2 inlet~;
#X obj 0 90 outlet~;
#N canvas 126 61 245 451 gravel 0;
#X obj 1 151 inlet~;
#X obj 40 431 outlet~;
#X obj 189 0 inlet;
#X obj 189 26 switch~;
#X obj 108 0 noise~;
#X obj 55 128 *~;
#X obj 56 79 /~;
#X obj 86 42 lop~ 2000;
#X obj 24 42 lop~ 300;
#X obj 55 173 clip~ -0.9 0.9;
#X obj 39 407 *~;
#X obj 73 312 clip~ 500 10000;
#X obj 73 195 lop~ 50;
#X obj 56 102 hip~ 400;
#X obj 55 151 *~ 0.01;
#X obj 73 215 *~ 50000;
#X obj 55 362 hip~ 200;
#X obj 55 385 *~ 2;
#X obj 73 287 +~;
#X obj 89 262 *~ 1000;
#X obj 55 338 vcf~ 3;
#X connect 0 0 10 0;
#X connect 0 0 19 0;
#X connect 2 0 3 0;
#X connect 4 0 7 0;
#X connect 4 0 8 0;
#X connect 4 0 12 0;
#X connect 5 0 14 0;
#X connect 6 0 13 0;
#X connect 7 0 6 1;
#X connect 8 0 6 0;
#X connect 9 0 20 0;
#X connect 10 0 1 0;
#X connect 11 0 20 1;
#X connect 12 0 15 0;
#X connect 13 0 5 0;
#X connect 13 0 5 1;
#X connect 14 0 9 0;
#X connect 15 0 18 0;
#X connect 16 0 17 0;
#X connect 17 0 10 1;
#X connect 18 0 11 0;
#X connect 19 0 18 1;
#X connect 20 0 16 0;
#X restore 0 68 pd gravel;
#X connect 0 0 1 0;
#X connect 1 0 4 1;
#X connect 2 0 0 0;
#X connect 2 0 4 0;
#X connect 4 0 3 0;
#X restore 250 168 pd gravtex;
#N canvas 0 0 726 641 woodtex 0;
#X obj 202 75 env~;
#X obj 202 96 > 0.5;
#X obj 180 38 inlet~;
#X obj 158 139 outlet~;
#N canvas 0 0 1177 818 wood 0;
#X obj 470 445 *~;
#X obj 181 142 inlet~;
#X obj 401 564 outlet~;
#X obj 238 140 inlet;
#X obj 180 221 *~;
#X obj 401 527 +~;
#X obj 237 163 switch~;
#X obj 466 255 noise~;
#X obj 419 322 *~ 6;
#X obj 801 262 noise~;
#X obj 355 423 *~;
#X obj 737 287 bp~ 123 20;
#X obj 180 251 *~ 2;
#X obj 336 293 bp~ 95 90;
#X obj 411 291 bp~ 134 90;
#X obj 489 290 bp~ 139 90;
#X obj 567 290 bp~ 154 90;
#X obj 815 286 bp~ 156 90;
#X obj 893 286 bp~ 189 90;
#X obj 745 318 *~ 8;
#X obj 662 289 bp~ 201 70;
#X obj 243 258 sqrt~;
#X obj 356 449 *~ 0.5;
#X obj 469 469 *~ 0.6;
#X connect 0 0 23 0;
#X connect 1 0 4 0;
#X connect 1 0 4 1;
#X connect 1 0 21 0;
#X connect 3 0 6 0;
#X connect 4 0 12 0;
#X connect 5 0 2 0;
#X connect 7 0 13 0;
#X connect 7 0 14 0;
#X connect 7 0 15 0;
#X connect 7 0 16 0;
#X connect 8 0 10 1;
#X connect 9 0 11 0;
#X connect 9 0 17 0;
#X connect 9 0 18 0;
#X connect 9 0 20 0;
#X connect 10 0 22 0;
#X connect 11 0 19 0;
#X connect 12 0 0 0;
#X connect 13 0 8 0;
#X connect 14 0 8 0;
#X connect 15 0 8 0;
#X connect 16 0 8 0;
#X connect 17 0 19 0;
#X connect 18 0 19 0;
#X connect 19 0 0 1;
#X connect 20 0 19 0;
#X connect 21 0 10 0;
#X connect 22 0 5 0;
#X connect 23 0 5 0;
#X restore 158 117 pd wood;
#X connect 0 0 1 0;
#X connect 1 0 4 1;
#X connect 2 0 0 0;
#X connect 2 0 4 0;
#X connect 4 0 3 0;
#X restore 332 167 pd woodtex;
#X text 233 81 surface select;
#X text 9 83 control envelope;
#X connect 0 0 2 0;
#X connect 2 0 4 0;
#X connect 2 1 6 0;
#X connect 2 2 5 0;
#X connect 2 3 7 0;
#X connect 2 4 8 0;
#X connect 3 0 2 1;
#X connect 4 0 1 0;
#X connect 5 0 1 0;
#X connect 6 0 1 0;
#X connect 7 0 1 0;
#X connect 8 0 1 0;
#X restore 70 423 pd texturesource;
#X obj 32 524 +~;
#X obj 5 350 r walkspeed;
#N canvas 43 30 514 361 foot 0;
#X obj 20 130 clip~ 0 0.33333;
#X obj 283 130 clip~ 0.666666 1;
#X obj 20 178 *~ 3;
#X obj 285 178 *~ 3;
#X obj 284 156 -~ 0.666666;
#X obj 154 130 clip~ 0.125 0.875;
#X obj 153 156 -~ 0.125;
#X obj 152 178 *~ 1.33333;
#N canvas 512 249 566 419 polycurve 0;
#X obj 173 193 *~;
#X obj 174 217 *~;
#X obj 237 168 sig~ 1;
#X obj 211 277 -~;
#X obj 220 303 *~;
#X obj 173 158 *~ 1;
#X obj 219 326 *~ -1.5;
#X obj 237 192 -~;
#X obj 210 253 *~;
#X obj 227 148 inlet~ N;
#X obj 201 193 *~;
#X obj 173 126 inlet~ X;
#X obj 218 351 outlet~ P;
#X connect 0 0 1 0;
#X connect 1 0 8 0;
#X connect 2 0 7 0;
#X connect 3 0 4 0;
#X connect 4 0 6 0;
#X connect 5 0 0 0;
#X connect 5 0 0 1;
#X connect 5 0 1 1;
#X connect 5 0 7 1;
#X connect 5 0 10 0;
#X connect 6 0 12 0;
#X connect 7 0 4 1;
#X connect 8 0 3 0;
#X connect 9 0 10 1;
#X connect 9 0 8 1;
#X connect 10 0 3 1;
#X connect 11 0 5 0;
#X restore 21 229 pd polycurve;
#N canvas 0 0 566 419 polycurve 0;
#X obj 173 193 *~;
#X obj 174 217 *~;
#X obj 237 168 sig~ 1;
#X obj 211 277 -~;
#X obj 220 303 *~;
#X obj 173 158 *~ 1;
#X obj 219 326 *~ -1.5;
#X obj 237 192 -~;
#X obj 210 253 *~;
#X obj 227 148 inlet~ N;
#X obj 201 193 *~;
#X obj 173 126 inlet~ X;
#X obj 218 351 outlet~ P;
#X connect 0 0 1 0;
#X connect 1 0 8 0;
#X connect 2 0 7 0;
#X connect 3 0 4 0;
#X connect 4 0 6 0;
#X connect 5 0 0 0;
#X connect 5 0 0 1;
#X connect 5 0 1 1;
#X connect 5 0 7 1;
#X connect 5 0 10 0;
#X connect 6 0 12 0;
#X connect 7 0 4 1;
#X connect 8 0 3 0;
#X connect 9 0 10 1;
#X connect 9 0 8 1;
#X connect 10 0 3 1;
#X connect 11 0 5 0;
#X restore 152 230 pd polycurve;
#N canvas 0 0 566 419 polycurve 0;
#X obj 173 193 *~;
#X obj 174 217 *~;
#X obj 237 168 sig~ 1;
#X obj 211 277 -~;
#X obj 220 303 *~;
#X obj 173 158 *~ 1;
#X obj 219 326 *~ -1.5;
#X obj 237 192 -~;
#X obj 210 253 *~;
#X obj 227 148 inlet~ N;
#X obj 201 193 *~;
#X obj 173 126 inlet~ X;
#X obj 218 351 outlet~ P;
#X connect 0 0 1 0;
#X connect 1 0 8 0;
#X connect 2 0 7 0;
#X connect 3 0 4 0;
#X connect 4 0 6 0;
#X connect 5 0 0 0;
#X connect 5 0 0 1;
#X connect 5 0 1 1;
#X connect 5 0 7 1;
#X connect 5 0 10 0;
#X connect 6 0 12 0;
#X connect 7 0 4 1;
#X connect 8 0 3 0;
#X connect 9 0 10 1;
#X connect 9 0 8 1;
#X connect 10 0 3 1;
#X connect 11 0 5 0;
#X restore 284 229 pd polycurve;
#X obj 101 204 r~ n1;
#X obj 230 204 r~ n2;
#X obj 363 204 r~ n3;
#X obj 154 34 inlet~;
#X obj 152 301 outlet~;
#X obj 153 60 clip~ 0 0.75;
#X obj 154 88 *~ 1.33333;
#X connect 0 0 2 0;
#X connect 1 0 4 0;
#X connect 2 0 8 0;
#X connect 3 0 10 0;
#X connect 4 0 3 0;
#X connect 5 0 6 0;
#X connect 6 0 7 0;
#X connect 7 0 9 0;
#X connect 8 0 15 0;
#X connect 9 0 15 0;
#X connect 10 0 15 0;
#X connect 11 0 8 1;
#X connect 12 0 9 1;
#X connect 13 0 10 1;
#X connect 14 0 16 0;
#X connect 16 0 17 0;
#X connect 17 0 0 0;
#X connect 17 0 5 0;
#X connect 17 0 1 0;
#X restore 70 398 pd foot;
#X obj 438 13 r walkspeed;
#X obj 438 38 sig~;
#X obj 438 92 -~;
#X obj 453 67 lop~ 0.5;
#X obj 438 121 snapshot~;
#X obj 373 60 metro 100;
#X obj 438 168 + 0.5;
#X obj 491 208 s \$0-ballf;
#X obj 438 148 * 1.7;
#X obj 438 255 s \$0-heelf;
#X obj 438 208 swap 1;
#X obj 438 233 -;
#X obj 373 34 loadbang;
#X obj 151 372 loadbang;
#X msg 151 397 gravel;
#X obj 333 150 * 1;
#X floatatom 208 322 5 0 0 0 - - - 0;
#X floatatom 65 323 5 0 0 0 - - - 0;
#X obj 13 43 list split 2;
#X obj 11 129 * 100;
#X obj 45 151 * 10;
#X obj 11 76 unpack f f f;
#X obj 11 102 - 48;
#X obj 45 102 - 48;
#X obj 80 102 - 48;
#X obj 11 170 +;
#X obj 65 196 +;
#X obj 65 275 line;
#X obj 65 247 pack f 1500;
#X obj 31 554 *~;
#X obj 156 455 vsl 16 136 0 1 0 0 empty empty empty 0 -9 0 10 #fcfcfc #000000 #000000 0 1;
#N canvas 0 50 450 250 (subpatch) 0;
#X array audioData1 48128 float 2;
#X coords 0 1 48128 -1 200 140 1;
#X restore 1025 41 graph;
#N canvas 0 50 450 250 (subpatch) 0;
#X array audioData2 48128 float 2;
#X coords 0 1 48128 -1 200 140 1 0 0;
#X restore 1025 201 graph;
#X obj 1348 307 *~;
#X obj 1387 307 *~;
#X obj 1270 197 bng 19 250 50 0 empty empty empty 0 -10 0 12 #fcfcfc #000000 #000000;
#X obj 1235 238 tabplay~ audioData1;
#X obj 1365 238 tabplay~ audioData2;
#X obj 1235 270 lop~ 2000;
#X obj 1366 269 lop~ 2000;
#X obj 65 225 * 0.001;
#X obj 127 759 hsl 162 19 2 25 0 0 empty empty empty -2 -10 0 12 #fcfcfc #000000 #000000 0 1;
#X obj 128 709 hsl 162 19 0 600 0 0 empty empty empty -2 -10 0 12 #fcfcfc #000000 #000000 0 1;
#X obj 127 813 hsl 162 19 0 2000 0 0 empty empty empty -2 -10 0 12 #fcfcfc #000000 #000000 0 1;
#X obj 6 821 bp~ 100 1;
#X obj 7 736 noise~;
#X obj 51 970 hip~;
#X obj 209 842 vsl 19 162 0 1 0 0 empty empty empty 0 -9 0 12 #fcfcfc #000000 #000000 0 1;
#X floatatom 165 1015 5 0 0 0 - - - 0;
#X text 125 731 Pitch;
#X text 124 782 Q, f 2;
#X obj 383 759 hsl 162 19 2 25 0 0 empty empty empty -2 -10 0 12 #fcfcfc #000000 #000000 0 1;
#X obj 385 707 hsl 162 19 0 400 0 0 empty empty empty -2 -10 0 12 #fcfcfc #000000 #000000 0 1;
#X obj 384 812 hsl 162 19 0 2000 0 0 empty empty empty -2 -10 0 12 #fcfcfc #000000 #000000 0 1;
#X obj 303 781 noise~;
#X obj 304 876 hip~;
#X obj 305 1045 *~;
#X obj 382 860 vsl 19 162 0 1 0 0 empty empty empty 0 -9 0 12 #fcfcfc #000000 #000000 0 1;
#X floatatom 382 1030 5 0 0 0 - - - 0;
#X text 385 731 Pitch;
#X text 381 788 Q;
#X text 377 1108 gusts;
#X obj 675 754 hsl 162 19 2 25 0 0 empty empty empty -2 -10 0 12 #fcfcfc #000000 #000000 0 1;
#X obj 672 704 hsl 162 19 0 1000 0 0 empty empty empty -2 -10 0 12 #fcfcfc #000000 #000000 0 1;
#X obj 676 807 hsl 162 19 0 2000 0 0 empty empty empty -2 -10 0 12 #fcfcfc #000000 #000000 0 1;
#X obj 567 756 noise~;
#X obj 568 872 hip~;
#X obj 729 856 vsl 19 162 0 1 0 0 empty empty empty 0 -9 0 12 #fcfcfc #000000 #000000 0 1;
#X floatatom 729 1030 5 0 0 0 - - - 0;
#X text 669 729 Pitch;
#X text 675 781 Q;
#X text 1002 833 Cutoff;
#X obj 1001 758 hsl 162 19 2 25 0 0 empty empty empty -2 -10 0 12 #fcfcfc #000000 #000000 0 1;
#X obj 1000 707 hsl 162 19 0 10000 0 0 empty empty empty -2 -10 0 12 #fcfcfc #000000 #000000 0 1;
#X obj 1002 807 hsl 162 19 0 10000 0 0 empty empty empty -2 -10 0 12 #fcfcfc #000000 #000000 0 1;
#X obj 884 757 noise~;
#X obj 884 934 hip~;
#X obj 1003 881 vsl 19 162 0 1 0 0 empty empty empty 0 -9 0 12 #fcfcfc #000000 #000000 0 1;
#X text 998 733 Pitch;
#X text 1002 784 Q;
#X obj 883 867 bp~ 500 20;
#X obj 303 824 bp~ 100 10;
#X obj 567 832 bp~ 200 20;
#X obj 594 807 line;
#X obj 31 790 line;
#X obj 911 833 line;
#X obj 50 1060 *~;
#X obj 566 1044 *~;
#X obj 885 1062 *~;
#X obj 180 1066 line;
#X obj 451 1061 line;
#X obj 51 1081 s~ wind_gusts;
#X obj 306 1078 s~ wind_rumble;
#X obj 566 1074 s~ wind_power;
#X obj 885 1090 s~ wind_whistle;
#X obj 721 1231 r~ wind_whistle;
#X obj 1118 1175 *~;
#X obj 1213 945 vsl 19 162 0 1 0 0 empty empty empty 0 -9 0 12 #fcfcfc #000000 #000000 0 1;
#X floatatom 1213 1122 5 0 0 0 - - - 0;
#X obj 1133 1146 line;
#X obj 525 1097 vsl 16 136 0 1 0 0 empty empty empty 0 -9 0 10 #fcfcfc #000000 #000000 0 1;
#X obj 180 1040 pack f 5000;
#X obj 209 1015 * 10;
#X obj 31 760 pack f 500;
#X obj 19 1233 r~ sound_output;
#X obj 31 589 s~ sound_output;
#X obj 499 1431 dac~;
#X obj 1118 1201 s~ sound_output1;
#X obj 125 1232 r~ sound_output1;
#X obj 1133 1122 pack f 1000;
#X msg 997 1148 start;
#X msg 998 1170 stop;
#X obj 246 1232 r~ sound_output2;
#X obj 911 796 pack f 4000;
#X obj 13 12 r roll_input;
#X obj 1503 104 vsl 19 162 0 1 0 0 empty empty empty 0 -9 0 12 #fcfcfc #000000 #000000 0 1;
#N canvas 0 50 450 250 (subpatch) 0;
#X array audioData5 30788 float 2;
#X coords 0 1 30788 -1 200 140 1 0 0;
#X restore 1025 361 graph;
#N canvas 0 50 450 250 (subpatch) 0;
#X array audioData6 30788 float 2;
#X coords 0 1 30788 -1 200 140 1 0 0;
#X restore 1025 520 graph;
#X obj 1232 390 soundfiler;
#X obj 1390 843 *~;
#X obj 1420 843 *~;
#X obj 1323 650 bng 19 250 50 0 empty empty empty 0 -10 0 12 #fcfcfc #000000 #000000;
#X obj 1416 883 s~ sound_output2;
#X obj 1487 628 vsl 19 162 0 1 0 0 empty empty empty 0 -9 0 12 #fcfcfc #000000 #000000 0 1;
#X floatatom 1487 802 5 0 1 0 - - - 0;
#X obj 1224 697 tabplay~ audioData5;
#X obj 1348 698 tabplay~ audioData6;
#X obj 1347 801 bp~ 2000 60;
#X obj 1246 860 list split 2;
#X obj 1247 963 * 100;
#X obj 1281 943 * 10;
#X obj 1247 885 unpack f f f;
#X obj 1247 915 - 48;
#X obj 1281 915 - 48;
#X obj 1317 916 - 48;
#X obj 1266 997 +;
#X obj 1266 1026 +;
#X obj 1266 1051 * 0.001;
#X obj 1266 1099 line;
#X obj 1266 1074 pack f 1500;
#X obj 879 44 unpack f f;
#X obj 859 180 vsl 16 136 0 1 0 0 empty empty empty 0 -9 0 10 #fcfcfc #000000 #000000 0 1;
#X obj 936 181 vsl 16 136 0 1 0 0 empty empty empty 0 -9 0 10 #fcfcfc #000000 #000000 0 1;
#X obj 879 67 - 48;
#X obj 936 67 - 48;
#X obj 859 138 line;
#X obj 936 139 line;
#X obj 879 14 r direction;
#X obj 19 1346 *~;
#X obj 88 1345 *~;
#X obj 127 1346 *~;
#X obj 202 1346 *~;
#X obj 245 1347 *~;
#X obj 322 1346 *~;
#X obj 363 1346 *~;
#X obj 431 1346 *~;
#X obj 558 1265 r r;
#X obj 453 1265 r l;
#X obj 859 329 s l;
#X obj 936 330 s r;
#X obj 362 1231 r~ heron_output;
#X obj 1370 343 s~ heron_output;
#X obj 879 89 + 0.25;
#X obj 936 89 + 0.25;
#X obj 594 781 pack f 5000;
#X msg 1232 363 read -resize pecker1.wav audioData5 audioData6;
#X obj 1326 399 r pecker;
#X obj 1326 423 list split 2;
#X obj 1327 518 * 100;
#X obj 1361 497 * 10;
#X obj 1327 448 unpack f f f;
#X obj 1327 472 - 48;
#X obj 1361 472 - 48;
#X obj 1396 472 - 48;
#X obj 1346 540 +;
#X obj 1380 562 +;
#X obj 1230 113 unpack f f f;
#X obj 1230 91 r heron_input;
#X obj 585 1346 *~;
#X obj 650 1346 *~;
#N canvas 0 50 450 250 (subpatch) 0;
#X array audioData3 106983 float 2;
#X coords 0 1 106983 -1 200 140 1 0 0;
#X restore 1574 50 graph;
#N canvas 0 50 450 250 (subpatch) 0;
#X array audioData4 106983 float 2;
#X coords 0 1 106983 -1 200 140 1 0 0;
#X restore 1574 207 graph;
#X obj 1788 81 soundfiler;
#X obj 2015 310 *~;
#X obj 2048 311 *~;
#X obj 2076 186 bng 19 250 50 0 empty empty empty 0 -10 0 12 #fcfcfc #000000 #000000;
#X obj 2204 396 vsl 19 162 0 1 0 0 empty empty empty 0 -9 0 12 #fcfcfc #000000 #000000 0 1;
#X floatatom 2204 579 5 0 1 0 - - - 0;
#X msg 1788 51 read -resize tree1.wav audioData3 audioData4;
#X obj 1849 242 tabplay~ audioData3;
#X obj 1976 243 tabplay~ audioData4;
#X obj 2014 282 lop~ 100;
#X obj 2048 891 s~ sound_output_tree;
#X obj 585 1233 r~ sound_output_tree;
#X obj 2076 52 r input_tree;
#N canvas 0 50 450 250 (subpatch) 0;
#X array tree2.1 87333 float 2;
#X coords 0 1 87333 -1 200 140 1 0 0;
#X restore 1575 376 graph;
#N canvas 0 50 450 250 (subpatch) 0;
#X array tree2.2 87333 float 2;
#X coords 0 1 87333 -1 200 140 1 0 0;
#X restore 1575 538 graph;
#X obj 1782 405 soundfiler;
#X obj 1961 652 *~;
#X obj 1992 653 *~;
#X obj 2093 471 bng 19 250 50 0 empty empty empty 0 -10 0 12 #fcfcfc #000000 #000000;
#X obj 2254 397 vsl 19 162 0 1 0 0 empty empty empty 0 -9 0 12 #fcfcfc #000000 #000000 0 1;
#X floatatom 2254 580 5 0 1 0 - - - 0;
#N canvas 0 50 450 250 (subpatch) 0;
#X array tree3.1 72049 float 2;
#X coords 0 1 72049 -1 200 140 1 0 0;
#X restore 1574 698 graph;
#N canvas 0 50 450 250 (subpatch) 0;
#X array tree3.2 72049 float 2;
#X coords 0 1 72049 -1 200 140 1 0 0;
#X restore 1574 858 graph;
#X obj 1787 740 soundfiler;
#X obj 1913 846 *~;
#X obj 1952 846 *~;
#X obj 2110 698 bng 19 250 50 0 empty empty empty 0 -10 0 12 #fcfcfc #000000 #000000;
#X obj 2302 396 vsl 19 162 0 1 0 0 empty empty empty 0 -9 0 12 #fcfcfc #000000 #000000 0 1;
#X floatatom 2302 727 5 0 1 0 - - - 0;
#X obj 1880 813 lop~ 100;
#X obj 2076 129 sel 1 2 3;
#X msg 1782 377 read -resize tree2.wav tree2.1 tree2.2;
#X obj 1832 545 tabplay~ tree2.1;
#X obj 1937 544 tabplay~ tree2.2;
#X obj 1791 779 tabplay~ tree3.1;
#X obj 1902 780 tabplay~ tree3.2;
#X obj 2076 103 - 48;
#X msg 1787 704 read -resize tree5.wav tree3.1 tree3.2;
#X obj 1230 68 soundfiler;
#X msg 1230 42 read -resize grey_heron_big.wav audioData1 audioData2;
#X obj 1205 913 r end;
#X obj 936 113 pack f 1000;
#X obj 859 115 pack f 1000;
#X floatatom 1378 210 5 0 0 0 - - - 0;
#X obj 1285 137 sel 50 51;
#X obj 1230 164 sel 49 50;
#X obj 1246 832 r wind_amplitude;
#X obj 1052 913 - 48;
#X obj 1086 913 - 48;
#X obj 1121 913 - 48;
#X obj 1052 860 list split 2;
#X obj 1052 884 unpack f f f;
#X obj 1121 940 / 1000;
#X obj 1083 940 / 100;
#X obj 1052 941 / 10;
#X obj 1052 975 +;
#X obj 1052 1003 +;
#X obj 451 926 - 48;
#X obj 485 926 - 48;
#X obj 520 925 - 48;
#X obj 451 869 list split 2;
#X obj 451 894 unpack f f f;
#X obj 520 956 / 1000;
#X obj 483 956 / 100;
#X obj 451 956 / 10;
#X obj 451 985 +;
#X obj 451 1014 +;
#X obj 451 1038 pack f 1000;
#X obj 1052 1050 line;
#X obj 722 1347 *~;
#X obj 797 1347 *~;
#X obj 826 1346 *~;
#X obj 899 1347 *~;
#X obj 1380 583 * 10;
#X obj 1323 607 sel 9000;
#X obj 1433 523 * 100;
#X obj 1467 503 * 10;
#X obj 1433 450 unpack f f f;
#X obj 1433 475 - 48;
#X obj 1467 476 - 48;
#X obj 1502 476 - 48;
#X obj 1452 548 +;
#X obj 1487 572 +;
#X obj 1487 598 / 1000;
#X obj 1432 393 r pecker_amp;
#X obj 1432 422 list split 2;
#X msg 1379 177 0.3;
#X obj 1087 1068 r~ wind_power;
#X obj 825 1232 r~ wind_rumble;
#X obj 1119 1093 r~ wind_gusts;
#X msg 942 671 20;
#X floatatom 1003 1054 5 0 0 0 - - - 0;
#X obj 1052 1075 * 4;
#X obj 1052 1027 pack f 1000;
#X obj 451 1085 * 4;
#X msg 998 1262 open Walking.wav;
#X msg 382 673 130;
#X msg 996 1195 open Wind.wav;
#X msg 998 1218 open Whistle.wav;
#X msg 1000 1240 open Rumble.wav;
#X msg 995 1286 open Wind_Total.wav;
#X msg 990 1314 open Branch.wav;
#X msg 983 1336 open Heron.wav;
#X msg 976 1360 open Woodpecker.wav;
#X obj 1908 591 lop~ 100;
#X msg 2130 314 0.1;
#X obj 945 1168 bng 16 250 50 0 empty empty empty 0 -8 0 10 #fcfcfc #000000 #000000;
#X obj 1323 629 metro 9000;
#X msg 945 1410 open FullAudioL.wav;
#X msg 965 1384 open FullAudioR.wav;
#X msg 1343 177 0.7;
#X obj 156 43 list split 2;
#X obj 154 129 * 100;
#X obj 188 151 * 10;
#X obj 154 76 unpack f f f;
#X obj 154 102 - 48;
#X obj 188 102 - 48;
#X obj 223 102 - 48;
#X obj 154 170 +;
#X obj 208 196 +;
#X obj 208 275 line;
#X obj 208 247 pack f 1500;
#X obj 208 225 * 0.001;
#X obj 156 12 r walkspeed_input;
#X obj 732 197 s heron_input;
#X obj 565 331 list split 5;
#X obj 605 426 s direction;
#X obj 564 459 s walkspeed_input;
#X obj 605 365 list split 2;
#X obj 645 402 s roll_input;
#X obj 680 242 s input_tree;
#X obj 706 220 s pecker;
#X obj 592 310 s wind_amplitude;
#X obj 756 177 s pecker_amp;
#X obj 565 58 route 97 98 99 100 101 104 105 106 122;
#X obj 511 569 loadbang;
#X text 123 839 Cutoff;
#X text 380 839 Cutoff;
#X text 135 944 Amplitude;
#X text 316 941 Amplitude;
#X text 672 830 Cutoff;
#X text 657 933 Amplitude;
#X text 923 931 Amplitude;
#X text 1018 671 Wind - Whistle;
#X text 422 672 Wind - Rumble;
#X text 177 672 Wind - Gusts;
#X text 325 359 Andy Farnell's "footsteps";
#X text 708 672 Wind - Power;
#X text 523 550 Wind;
#X obj 765 101 sel 49;
#X msg 765 125 0;
#X obj 2130 288 loadbang;
#X obj 2076 76 unpack f;
#X obj 765 154 s end;
#X text 175 511 Amplitude;
#X text 1506 704 Amplitude;
#X text 874 247 Amplitude;
#X text 1434 175 Amplitude;
#X text 2224 346 Amplitude;
#X text 1146 1008 Amplitude;
#X obj 1052 833 r whistle_amplitude;
#X obj 624 286 s whistle_amplitude;
#X obj 654 264 s rumble_amplitude;
#X obj 451 842 r rumble_amplitude;
#X msg 43 672 1860;
#X msg 80 672 13;
#X msg 125 672 500;
#X msg 300 675 500;
#X msg 340 674 20;
#X msg 579 671 1330;
#X msg 623 671 4;
#X msg 669 671 600;
#X msg 897 671 7000;
#X msg 980 671 800;
#X obj 565 14 netreceive -u -b 5000;
#X connect 0 0 21 0;
#X connect 0 1 25 0;
#X connect 1 0 17 0;
#X connect 2 0 18 0;
#X connect 3 0 19 0;
#X connect 4 0 23 0;
#X connect 5 0 42 0;
#X connect 11 0 1 0;
#X connect 12 0 2 0;
#X connect 13 0 3 0;
#X connect 14 0 41 0;
#X connect 15 0 43 0;
#X connect 17 0 6 0;
#X connect 18 0 7 0;
#X connect 19 0 8 0;
#X connect 20 0 9 0;
#X connect 21 0 4 0;
#X connect 22 0 23 1;
#X connect 23 0 55 0;
#X connect 24 0 0 0;
#X connect 25 0 22 0;
#X connect 26 0 27 0;
#X connect 27 0 28 0;
#X connect 27 0 29 0;
#X connect 28 0 30 0;
#X connect 29 0 28 1;
#X connect 30 0 34 0;
#X connect 31 0 30 0;
#X connect 32 0 33 0;
#X connect 32 0 36 0;
#X connect 34 0 32 0;
#X connect 36 0 37 0;
#X connect 36 1 37 1;
#X connect 37 0 35 0;
#X connect 38 0 31 0;
#X connect 39 0 40 0;
#X connect 40 0 4 1;
#X connect 40 0 22 1;
#X connect 41 0 20 0;
#X connect 44 1 47 0;
#X connect 45 0 51 0;
#X connect 46 0 51 1;
#X connect 47 0 48 0;
#X connect 47 1 49 0;
#X connect 47 2 50 0;
#X connect 48 0 45 0;
#X connect 49 0 46 0;
#X connect 50 0 52 1;
#X connect 51 0 52 0;
#X connect 52 0 66 0;
#X connect 53 0 15 0;
#X connect 54 0 53 0;
#X connect 55 0 131 0;
#X connect 56 0 55 1;
#X connect 59 0 187 0;
#X connect 60 0 187 0;
#X connect 61 0 62 0;
#X connect 61 0 63 0;
#X connect 62 0 64 0;
#X connect 63 0 65 0;
#X connect 64 0 59 0;
#X connect 65 0 60 0;
#X connect 66 0 54 0;
#X connect 67 0 70 2;
#X connect 68 0 129 0;
#X connect 69 0 72 1;
#X connect 70 0 72 0;
#X connect 71 0 70 0;
#X connect 72 0 112 0;
#X connect 73 0 74 0;
#X connect 73 0 128 0;
#X connect 77 0 107 2;
#X connect 78 0 107 1;
#X connect 79 0 81 1;
#X connect 80 0 107 0;
#X connect 81 0 82 0;
#X connect 82 0 118 0;
#X connect 83 0 84 0;
#X connect 83 0 82 1;
#X connect 88 0 108 2;
#X connect 89 0 190 0;
#X connect 90 0 92 1;
#X connect 91 0 108 0;
#X connect 92 0 113 0;
#X connect 93 0 94 0;
#X connect 93 0 113 1;
#X connect 98 0 106 2;
#X connect 99 0 139 0;
#X connect 100 0 102 1;
#X connect 101 0 106 0;
#X connect 102 0 114 0;
#X connect 103 0 114 1;
#X connect 103 0 299 0;
#X connect 106 0 102 0;
#X connect 107 0 81 0;
#X connect 108 0 92 0;
#X connect 109 0 108 1;
#X connect 110 0 70 1;
#X connect 111 0 106 1;
#X connect 112 0 117 0;
#X connect 113 0 119 0;
#X connect 114 0 120 0;
#X connect 115 0 112 1;
#X connect 116 0 302 0;
#X connect 121 0 278 0;
#X connect 121 0 277 0;
#X connect 122 0 133 0;
#X connect 123 0 124 0;
#X connect 123 0 135 0;
#X connect 125 0 122 1;
#X connect 126 0 93 0;
#X connect 126 0 73 0;
#X connect 127 0 115 0;
#X connect 128 0 127 0;
#X connect 129 0 110 0;
#X connect 130 0 175 0;
#X connect 130 0 174 0;
#X connect 134 0 177 0;
#X connect 134 0 176 0;
#X connect 135 0 125 0;
#X connect 138 0 179 0;
#X connect 138 0 178 0;
#X connect 139 0 111 0;
#X connect 140 0 44 0;
#X connect 141 0 59 0;
#X connect 141 0 60 1;
#X connect 145 0 148 0;
#X connect 146 0 148 0;
#X connect 147 0 151 0;
#X connect 147 0 152 0;
#X connect 149 0 150 0;
#X connect 150 0 145 1;
#X connect 150 0 146 1;
#X connect 151 0 153 0;
#X connect 152 0 153 0;
#X connect 153 0 145 0;
#X connect 153 0 146 0;
#X connect 154 1 157 0;
#X connect 155 0 161 0;
#X connect 156 0 161 1;
#X connect 157 0 158 0;
#X connect 157 1 159 0;
#X connect 157 2 160 0;
#X connect 158 0 155 0;
#X connect 159 0 156 0;
#X connect 160 0 162 1;
#X connect 161 0 162 0;
#X connect 162 0 163 0;
#X connect 163 0 165 0;
#X connect 164 0 123 0;
#X connect 165 0 164 0;
#X connect 166 0 169 0;
#X connect 166 1 170 0;
#X connect 167 0 184 0;
#X connect 168 0 185 0;
#X connect 169 0 188 0;
#X connect 170 0 189 0;
#X connect 171 0 167 0;
#X connect 172 0 168 0;
#X connect 173 0 166 0;
#X connect 174 0 132 0;
#X connect 175 0 132 1;
#X connect 176 0 132 0;
#X connect 177 0 132 1;
#X connect 178 0 132 0;
#X connect 179 0 132 1;
#X connect 180 0 132 0;
#X connect 181 0 132 1;
#X connect 182 0 177 1;
#X connect 182 0 179 1;
#X connect 182 0 181 1;
#X connect 182 0 175 1;
#X connect 182 0 205 1;
#X connect 182 0 278 1;
#X connect 182 0 280 1;
#X connect 183 0 174 1;
#X connect 183 0 176 1;
#X connect 183 0 178 1;
#X connect 183 0 180 1;
#X connect 183 0 204 1;
#X connect 183 0 277 1;
#X connect 183 0 279 1;
#X connect 186 0 181 0;
#X connect 186 0 180 0;
#X connect 188 0 250 0;
#X connect 189 0 249 0;
#X connect 190 0 109 0;
#X connect 191 0 144 0;
#X connect 192 0 193 0;
#X connect 193 1 196 0;
#X connect 194 0 200 0;
#X connect 195 0 200 1;
#X connect 196 0 197 0;
#X connect 196 1 198 0;
#X connect 196 2 199 0;
#X connect 197 0 194 0;
#X connect 198 0 195 0;
#X connect 199 0 201 1;
#X connect 200 0 201 0;
#X connect 201 0 281 0;
#X connect 202 0 253 0;
#X connect 202 1 252 0;
#X connect 203 0 202 0;
#X connect 204 0 132 0;
#X connect 205 0 132 1;
#X connect 209 0 218 0;
#X connect 210 0 218 0;
#X connect 211 0 215 0;
#X connect 211 0 216 0;
#X connect 212 0 213 0;
#X connect 213 0 209 1;
#X connect 213 0 210 1;
#X connect 214 0 208 0;
#X connect 215 0 217 0;
#X connect 216 0 217 0;
#X connect 217 0 210 0;
#X connect 217 0 209 0;
#X connect 219 0 204 0;
#X connect 219 0 205 0;
#X connect 220 0 360 0;
#X connect 224 0 218 0;
#X connect 225 0 218 0;
#X connect 226 0 240 0;
#X connect 226 0 241 0;
#X connect 227 0 228 0;
#X connect 228 0 224 1;
#X connect 228 0 225 1;
#X connect 232 0 218 0;
#X connect 233 0 218 0;
#X connect 234 0 242 0;
#X connect 234 0 243 0;
#X connect 235 0 236 0;
#X connect 236 0 232 1;
#X connect 236 0 233 1;
#X connect 237 0 233 0;
#X connect 237 0 232 0;
#X connect 238 0 211 0;
#X connect 238 1 226 0;
#X connect 238 2 234 0;
#X connect 239 0 223 0;
#X connect 240 0 312 0;
#X connect 241 0 312 0;
#X connect 242 0 237 0;
#X connect 243 0 237 0;
#X connect 244 0 238 0;
#X connect 245 0 231 0;
#X connect 247 0 246 0;
#X connect 248 0 123 0;
#X connect 249 0 172 0;
#X connect 250 0 171 0;
#X connect 251 0 141 0;
#X connect 252 0 318 0;
#X connect 252 1 294 0;
#X connect 253 0 61 0;
#X connect 253 1 61 0;
#X connect 254 0 154 0;
#X connect 255 0 262 0;
#X connect 256 0 261 0;
#X connect 257 0 260 0;
#X connect 258 1 259 0;
#X connect 259 0 255 0;
#X connect 259 1 256 0;
#X connect 259 2 257 0;
#X connect 260 0 264 1;
#X connect 261 0 263 1;
#X connect 262 0 263 0;
#X connect 263 0 264 0;
#X connect 264 0 301 0;
#X connect 265 0 272 0;
#X connect 266 0 271 0;
#X connect 267 0 270 0;
#X connect 268 1 269 0;
#X connect 269 0 265 0;
#X connect 269 1 266 0;
#X connect 269 2 267 0;
#X connect 270 0 274 1;
#X connect 271 0 273 1;
#X connect 272 0 273 0;
#X connect 273 0 274 0;
#X connect 274 0 275 0;
#X connect 275 0 116 0;
#X connect 276 0 300 0;
#X connect 277 0 132 0;
#X connect 278 0 132 1;
#X connect 279 0 132 0;
#X connect 280 0 132 1;
#X connect 281 0 315 1;
#X connect 281 0 282 0;
#X connect 282 0 315 0;
#X connect 283 0 289 0;
#X connect 284 0 289 1;
#X connect 285 0 286 0;
#X connect 285 1 287 0;
#X connect 285 2 288 0;
#X connect 286 0 283 0;
#X connect 287 0 284 0;
#X connect 288 0 290 1;
#X connect 289 0 290 0;
#X connect 290 0 291 0;
#X connect 291 0 149 0;
#X connect 292 0 293 0;
#X connect 293 1 285 0;
#X connect 294 0 251 0;
#X connect 295 0 122 0;
#X connect 296 0 280 0;
#X connect 296 0 279 0;
#X connect 297 0 122 0;
#X connect 298 0 98 0;
#X connect 300 0 103 0;
#X connect 301 0 276 0;
#X connect 302 0 83 0;
#X connect 304 0 78 0;
#X connect 312 0 225 0;
#X connect 312 0 224 0;
#X connect 313 0 212 0;
#X connect 313 0 227 0;
#X connect 313 0 235 0;
#X connect 314 0 303 0;
#X connect 314 0 305 0;
#X connect 314 0 306 0;
#X connect 314 0 307 0;
#X connect 314 0 308 0;
#X connect 314 0 309 0;
#X connect 314 0 310 0;
#X connect 314 0 311 0;
#X connect 314 0 316 0;
#X connect 314 0 317 0;
#X connect 315 0 147 0;
#X connect 318 0 251 0;
#X connect 319 1 322 0;
#X connect 320 0 326 0;
#X connect 321 0 326 1;
#X connect 322 0 323 0;
#X connect 322 1 324 0;
#X connect 322 2 325 0;
#X connect 323 0 320 0;
#X connect 324 0 321 0;
#X connect 325 0 327 1;
#X connect 326 0 327 0;
#X connect 327 0 330 0;
#X connect 328 0 5 0;
#X connect 329 0 328 0;
#X connect 330 0 329 0;
#X connect 331 0 319 0;
#X connect 333 0 335 0;
#X connect 333 1 336 0;
#X connect 336 0 334 0;
#X connect 336 1 337 0;
#X connect 342 0 333 0;
#X connect 342 1 340 0;
#X connect 342 2 369 0;
#X connect 342 3 370 0;
#X connect 342 4 338 0;
#X connect 342 5 339 0;
#X connect 342 6 332 0;
#X connect 342 7 341 0;
#X connect 342 8 357 0;
#X connect 343 0 374 0;
#X connect 343 0 373 0;
#X connect 343 0 372 0;
#X connect 343 0 375 0;
#X connect 343 0 376 0;
#X connect 343 0 304 0;
#X connect 343 0 377 0;
#X connect 343 0 378 0;
#X connect 343 0 379 0;
#X connect 343 0 380 0;
#X connect 343 0 298 0;
#X connect 343 0 381 0;
#X connect 357 0 358 0;
#X connect 358 0 361 0;
#X connect 358 0 167 0;
#X connect 358 0 168 0;
#X connect 359 0 313 0;
#X connect 360 0 244 0;
#X connect 368 0 258 0;
#X connect 371 0 268 0;
#X connect 372 0 69 0;
#X connect 373 0 67 0;
#X connect 374 0 68 0;
#X connect 375 0 79 0;
#X connect 376 0 77 0;
#X connect 377 0 90 0;
#X connect 378 0 88 0;
#X connect 379 0 89 0;
#X connect 380 0 100 0;
#X connect 381 0 99 0;
#X connect 382 0 342 0;
